<svg width="712" height="177" viewBox="0 0 712 177" fill="none" xmlns="http://www.w3.org/2000/svg">
<path d="M81.5801 76.0824C85.3009 79.5518 88.1417 83.6999 90.1027 88.5268C92.0636 93.3537 93.0441 98.5829 93.0441 104.214C93.0441 109.795 92.0636 115.075 90.1027 120.053C88.192 124.98 85.3763 129.204 81.6555 132.723C77.6834 136.494 72.9319 139.385 67.4011 141.397C61.9205 143.408 55.6354 144.413 48.5459 144.413C42.4117 144.413 36.7552 143.534 31.5763 141.774C26.4477 140.014 21.8973 137.374 17.9251 133.855C14.1038 130.486 11.087 126.338 8.87468 121.41C6.66234 116.432 5.55617 110.876 5.55617 104.742C5.55617 98.7086 6.5115 93.3537 8.42215 88.6776C10.3831 83.9513 13.2994 79.7529 17.1709 76.0824C20.8917 72.5628 25.4672 69.8476 30.8975 67.937C36.3781 65.976 42.4871 64.9956 49.2247 64.9956C56.2639 64.9956 62.4484 65.976 67.7782 67.937C73.1582 69.8476 77.7588 72.5628 81.5801 76.0824ZM62.2725 128.349C63.3786 125.533 64.1831 122.114 64.6859 118.092C65.239 114.069 65.5155 109.393 65.5155 104.063C65.5155 100.544 65.2641 96.5214 64.7613 91.9961C64.2585 87.4709 63.5043 83.901 62.4987 81.2864C61.292 78.1188 59.6076 75.6299 57.4455 73.8198C55.3338 72.0097 52.6438 71.1046 49.3755 71.1046C45.8056 71.1046 42.9396 72.0851 40.7776 74.046C38.6658 76.007 37.0317 78.5461 35.8752 81.6635C34.8194 84.5295 34.0903 87.8983 33.6881 91.7699C33.2858 95.5912 33.0847 99.5885 33.0847 103.762C33.0847 109.242 33.2607 113.793 33.6126 117.413C33.9646 120.983 34.8194 124.578 36.1769 128.198C37.3334 131.315 38.9926 133.779 41.1547 135.589C43.3167 137.399 46.057 138.304 49.3755 138.304C52.3924 138.304 54.9818 137.475 57.1439 135.816C59.3059 134.106 61.0154 131.617 62.2725 128.349ZM177.892 80.9847C177.892 84.8061 176.711 88.1748 174.347 91.0911C171.984 93.9571 168.867 95.3901 164.995 95.3901C161.325 95.3901 158.207 94.4599 155.643 92.5995C153.129 90.7391 151.872 87.9989 151.872 84.3787C151.872 82.6189 151.998 81.2613 152.249 80.306C152.501 79.3004 152.727 78.3702 152.928 77.5154C150.615 77.616 148.177 78.4204 145.612 79.9289C143.048 81.4373 140.785 83.4485 138.824 85.9625V127.368C138.824 129.128 139.101 130.586 139.654 131.743C140.207 132.899 141.137 133.804 142.445 134.458C143.551 135.011 145.336 135.489 147.799 135.891C150.313 136.243 152.124 136.444 153.23 136.494V142H102.773V136.494C104.03 136.394 105.287 136.268 106.544 136.117C107.852 135.916 108.958 135.665 109.863 135.363C111.472 134.81 112.578 133.955 113.181 132.799C113.785 131.642 114.086 130.134 114.086 128.273V84.3787C114.086 82.5686 113.659 80.9596 112.804 79.5518C111.949 78.0936 110.919 76.9372 109.712 76.0824C108.807 75.479 107.651 74.9762 106.243 74.574C104.885 74.1718 103.377 73.8952 101.717 73.7444V68.2387L137.693 66.2777L138.824 67.409V78.345H139.126C142.595 74.3226 146.266 71.1801 150.137 68.9174C154.059 66.6046 158.132 65.4481 162.356 65.4481C167.032 65.4481 170.778 66.9062 173.593 69.8225C176.459 72.6885 177.892 76.4092 177.892 80.9847ZM269.377 140.416C267.165 141.371 264.55 142.251 261.534 143.056C258.517 143.86 255.324 144.263 251.955 144.263C245.771 144.263 241.22 143.358 238.304 141.547C235.388 139.687 233.402 137.047 232.346 133.628H231.893C230.184 135.338 228.525 136.796 226.916 138.003C225.357 139.209 223.673 140.24 221.862 141.095C219.499 142.201 217.211 143.006 214.999 143.508C212.837 144.061 209.795 144.338 205.873 144.338C200.041 144.338 195.063 142.629 190.94 139.209C186.817 135.74 184.755 131.165 184.755 125.483C184.755 122.215 185.208 119.449 186.113 117.187C187.018 114.874 188.3 112.837 189.96 111.078C191.468 109.469 193.203 108.136 195.164 107.08C197.175 106.024 199.362 105.044 201.725 104.139C206.25 102.48 211.681 100.77 218.016 99.0103C224.351 97.2002 228.977 95.5912 231.893 94.1833V86.943C231.893 85.686 231.793 84.0267 231.592 81.9652C231.391 79.9037 230.963 78.169 230.31 76.7612C229.606 75.1522 228.499 73.7946 226.991 72.6885C225.483 71.5823 223.497 71.0292 221.033 71.0292C218.82 71.0292 216.96 71.356 215.452 72.0097C213.994 72.6131 212.812 73.2416 211.907 73.8952C212.058 74.9008 212.485 76.4344 213.189 78.4959C213.893 80.5574 214.245 82.5434 214.245 84.4541C214.245 85.3089 214.019 86.3899 213.566 87.6972C213.114 88.9542 212.46 89.9598 211.605 90.714C210.449 91.7196 209.141 92.499 207.683 93.052C206.275 93.6051 204.088 93.8817 201.122 93.8817C196.898 93.8817 193.705 92.8761 191.543 90.8648C189.381 88.8033 188.3 86.1385 188.3 82.8703C188.3 80.0546 189.406 77.5405 191.619 75.3282C193.881 73.0656 196.622 71.2052 199.84 69.7471C203.007 68.2387 206.653 67.0822 210.776 66.2777C214.899 65.423 218.72 64.9956 222.24 64.9956C227.117 64.9956 231.592 65.2973 235.664 65.9006C239.737 66.4537 243.408 67.6353 246.676 69.4454C249.793 71.2052 252.257 73.7695 254.067 77.1383C255.927 80.4568 256.858 84.8061 256.858 90.1861C256.858 95.8677 256.732 102.605 256.48 110.399C256.279 118.192 256.179 123.321 256.179 125.785C256.179 128.047 256.506 129.832 257.159 131.139C257.863 132.447 258.919 133.427 260.327 134.081C261.182 134.483 262.514 134.734 264.324 134.835C266.185 134.885 267.869 134.91 269.377 134.91V140.416ZM231.893 101.122C229.078 102.077 226.287 103.184 223.522 104.441C220.756 105.647 218.494 106.929 216.734 108.287C214.873 109.695 213.415 111.505 212.359 113.717C211.304 115.879 210.776 118.444 210.776 121.41C210.776 125.332 211.655 128.173 213.415 129.933C215.225 131.693 217.438 132.572 220.052 132.572C222.818 132.572 225.08 132.019 226.84 130.913C228.65 129.757 230.234 128.349 231.592 126.69L231.893 101.122ZM331.298 138.531C328.08 139.939 324.636 141.196 320.965 142.302C317.295 143.458 312.82 144.036 307.54 144.036C299.696 144.036 293.864 142.126 290.043 138.304C286.272 134.483 284.386 129.028 284.386 121.938V75.6299H270.81V67.4845H284.688V44.632H309.199V67.4845H330.317V75.6299H309.35V116.96C309.35 122.843 310.155 127.016 311.764 129.48C313.423 131.944 316.364 133.176 320.588 133.176C321.946 133.176 323.831 133.075 326.244 132.874C328.658 132.673 330.342 132.447 331.298 132.195V138.531ZM413.582 76.0824C417.302 79.5518 420.143 83.6999 422.104 88.5268C424.065 93.3537 425.046 98.5829 425.046 104.214C425.046 109.795 424.065 115.075 422.104 120.053C420.193 124.98 417.378 129.204 413.657 132.723C409.685 136.494 404.933 139.385 399.403 141.397C393.922 143.408 387.637 144.413 380.547 144.413C374.413 144.413 368.757 143.534 363.578 141.774C358.449 140.014 353.899 137.374 349.927 133.855C346.105 130.486 343.088 126.338 340.876 121.41C338.664 116.432 337.558 110.876 337.558 104.742C337.558 98.7086 338.513 93.3537 340.424 88.6776C342.385 83.9513 345.301 79.7529 349.172 76.0824C352.893 72.5628 357.469 69.8476 362.899 67.937C368.38 65.976 374.489 64.9956 381.226 64.9956C388.265 64.9956 394.45 65.976 399.78 67.937C405.16 69.8476 409.76 72.5628 413.582 76.0824ZM394.274 128.349C395.38 125.533 396.185 122.114 396.687 118.092C397.24 114.069 397.517 109.393 397.517 104.063C397.517 100.544 397.266 96.5214 396.763 91.9961C396.26 87.4709 395.506 83.901 394.5 81.2864C393.293 78.1188 391.609 75.6299 389.447 73.8198C387.335 72.0097 384.645 71.1046 381.377 71.1046C377.807 71.1046 374.941 72.0851 372.779 74.046C370.667 76.007 369.033 78.5461 367.877 81.6635C366.821 84.5295 366.092 87.8983 365.689 91.7699C365.287 95.5912 365.086 99.5885 365.086 103.762C365.086 109.242 365.262 113.793 365.614 117.413C365.966 120.983 366.821 124.578 368.178 128.198C369.335 131.315 370.994 133.779 373.156 135.589C375.318 137.399 378.058 138.304 381.377 138.304C384.394 138.304 386.983 137.475 389.145 135.816C391.307 134.106 393.017 131.617 394.274 128.349ZM509.894 80.9847C509.894 84.8061 508.712 88.1748 506.349 91.0911C503.986 93.9571 500.868 95.3901 496.997 95.3901C493.326 95.3901 490.209 94.4599 487.645 92.5995C485.131 90.7391 483.874 87.9989 483.874 84.3787C483.874 82.6189 483.999 81.2613 484.251 80.306C484.502 79.3004 484.728 78.3702 484.929 77.5154C482.617 77.616 480.178 78.4204 477.614 79.9289C475.049 81.4373 472.787 83.4485 470.826 85.9625V127.368C470.826 129.128 471.102 130.586 471.655 131.743C472.208 132.899 473.139 133.804 474.446 134.458C475.552 135.011 477.337 135.489 479.801 135.891C482.315 136.243 484.125 136.444 485.231 136.494V142H434.775V136.494C436.032 136.394 437.289 136.268 438.546 136.117C439.853 135.916 440.959 135.665 441.864 135.363C443.473 134.81 444.579 133.955 445.183 132.799C445.786 131.642 446.088 130.134 446.088 128.273V84.3787C446.088 82.5686 445.66 80.9596 444.806 79.5518C443.951 78.0936 442.92 76.9372 441.713 76.0824C440.808 75.479 439.652 74.9762 438.244 74.574C436.887 74.1718 435.378 73.8952 433.719 73.7444V68.2387L469.694 66.2777L470.826 67.409V78.345H471.127C474.597 74.3226 478.267 71.1801 482.139 68.9174C486.061 66.6046 490.133 65.4481 494.357 65.4481C499.033 65.4481 502.779 66.9062 505.595 69.8225C508.461 72.6885 509.894 76.4092 509.894 80.9847Z" fill="#164A2D"/>
<rect width="187.114" height="177" transform="translate(520.886)" fill="#13492C"/>
<path d="M585.481 142.5H526.125V136.617C527.483 136.517 529.469 136.366 532.084 136.165C534.748 135.964 536.584 135.662 537.589 135.26C539.45 134.505 540.707 133.525 541.36 132.318C542.064 131.061 542.416 129.477 542.416 127.567V51.6936C542.416 49.9841 542.089 48.4757 541.436 47.1684C540.782 45.8611 539.5 44.8052 537.589 44.0007C536.383 43.4979 534.598 42.9951 532.234 42.4923C529.871 41.9392 527.835 41.5621 526.125 41.361V35.4782H585.481V41.361C583.973 41.5118 582.087 41.7381 579.825 42.0398C577.562 42.2912 575.652 42.6683 574.093 43.1711C572.132 43.8247 570.825 44.8555 570.171 46.2633C569.517 47.6209 569.191 49.1796 569.191 50.9394V126.737C569.191 128.547 569.517 130.106 570.171 131.413C570.875 132.67 572.182 133.701 574.093 134.505C575.149 134.958 576.883 135.41 579.297 135.863C581.761 136.265 583.822 136.517 585.481 136.617V142.5ZM711.66 142.5H653.36V136.617C656.075 136.416 659.268 135.938 662.938 135.184C666.609 134.38 668.444 133.399 668.444 132.243C668.444 131.841 668.394 131.388 668.293 130.885C668.243 130.382 668.042 129.704 667.69 128.849L658.564 106.675H621.608C620.753 108.737 619.798 111.15 618.742 113.916C617.736 116.681 616.856 119.145 616.102 121.307C615.147 124.123 614.569 126.159 614.367 127.416C614.217 128.673 614.141 129.553 614.141 130.056C614.141 131.665 615.348 133.047 617.761 134.204C620.225 135.31 624.298 136.114 629.98 136.617V142.5H586.085V136.617C587.744 136.517 589.604 136.265 591.666 135.863C593.778 135.41 595.437 134.807 596.644 134.053C598.705 132.846 600.44 131.363 601.848 129.603C603.306 127.843 604.512 125.757 605.468 123.343C611.3 109.214 617.133 95.0604 622.965 80.8814C628.848 66.7023 635.334 51.0651 642.424 33.9698H657.508C667.363 58.2049 675.081 77.3618 680.662 91.4403C686.243 105.519 690.995 117.184 694.917 126.435C695.57 127.944 696.4 129.327 697.406 130.584C698.411 131.79 699.844 132.947 701.704 134.053C703.112 134.857 704.746 135.461 706.607 135.863C708.467 136.265 710.152 136.517 711.66 136.617V142.5ZM655.472 99.2086L639.935 60.4424L624.625 99.2086H655.472Z" fill="#F3F3ED"/>
</svg>
